<?xml version="1.0" standalone="no"?>
<!DOCTYPE svg PUBLIC "-//W3C//DTD SVG 20010904//EN"
 "http://www.w3.org/TR/2001/REC-SVG-20010904/DTD/svg10.dtd">
<svg version="1.0" xmlns="http://www.w3.org/2000/svg"
 width="300.000000pt" height="300.000000pt" viewBox="0 0 300.000000 300.000000"
 preserveAspectRatio="xMidYMid meet">
<metadata>
Created by potrace 1.14, written by Peter Selinger 2001-2017
</metadata>
<g transform="translate(0.000000,300.000000) scale(0.100000,-0.100000)"
fill="#000000" stroke="none">
<path d="M1385 2993 c-690 -59 -1236 -558 -1361 -1246 -23 -124 -23 -370 0
-494 117 -641 588 -1113 1229 -1229 113 -21 361 -23 467 -5 344 59 631 207
855 442 278 290 418 639 418 1039 0 425 -162 800 -473 1093 -302 284 -730 435
-1135 400z m-141 -779 c18 -7 22 -49 6 -59 -13 -8 -11 -185 2 -185 5 0 6 5 3
10 -3 6 -1 10 4 10 6 0 11 -4 11 -10 0 -5 11 -10 25 -10 18 0 23 -4 19 -15 -9
-22 19 -19 40 4 22 25 71 45 91 37 8 -3 15 -15 15 -26 0 -11 6 -19 13 -17 7 1
12 -9 12 -28 0 -25 5 -30 32 -36 27 -5 32 -3 37 15 3 12 16 34 29 50 27 33 56
32 96 -4 24 -20 41 -19 41 5 0 7 6 16 13 18 9 4 9 6 -1 6 -8 1 -16 -8 -19 -19
-4 -15 -8 -17 -17 -7 -17 18 -37 67 -27 67 5 0 12 -10 15 -22 l7 -23 16 23
c16 23 40 32 27 10 -5 -9 -2 -9 9 1 14 11 17 11 18 0 0 -8 4 -4 9 9 5 12 15
22 22 22 9 0 10 -2 2 -8 -15 -9 -35 -80 -25 -86 4 -3 14 7 23 22 21 37 18 124
-5 149 -22 25 -22 53 0 53 26 0 53 -31 53 -61 0 -15 5 -31 11 -35 6 -3 9 -21
7 -40 -4 -32 -3 -33 35 -32 23 0 41 6 44 14 3 8 11 14 17 14 7 0 17 5 24 12 6
6 19 13 28 14 14 2 14 1 0 -15 -25 -27 -19 -47 18 -71 19 -11 37 -26 39 -33 3
-8 10 -5 21 8 17 20 17 20 7 -2 -6 -12 -11 -29 -11 -37 0 -21 49 -33 61 -15 5
8 9 9 9 3 0 -5 -6 -16 -12 -23 -11 -10 -6 -12 22 -9 26 2 35 7 34 21 -1 10 5
17 17 17 23 0 25 25 4 34 -8 3 -15 10 -15 17 0 6 7 9 15 5 8 -3 15 -1 15 4 0
6 -4 10 -10 10 -5 0 -10 9 -10 20 0 11 4 20 9 20 5 0 11 -9 14 -20 4 -17 29
-26 60 -21 19 3 4 -37 -18 -49 -14 -8 -24 -19 -21 -26 3 -7 1 -14 -4 -16 -5
-2 -12 -22 -15 -46 -5 -46 5 -49 33 -10 7 10 17 16 22 13 11 -7 58 19 75 41
14 20 2 60 -15 49 -6 -3 -7 1 -4 9 3 9 9 16 13 16 3 0 16 3 29 6 14 4 22 2 22
-6 0 -7 -7 -10 -17 -5 -14 5 -15 4 -6 -6 10 -9 18 -10 37 -1 27 12 96 5 96
-10 0 -5 4 -6 10 -3 10 6 86 -48 108 -77 7 -10 19 -18 26 -18 7 0 13 -7 13
-15 0 -11 -4 -12 -11 -5 -5 5 -18 10 -28 10 -16 0 -16 -2 3 -21 11 -11 27 -18
35 -15 8 3 14 -1 14 -9 0 -8 4 -15 10 -15 16 0 -1 -30 -19 -31 -10 0 -12 -2
-3 -6 7 -3 19 0 26 6 10 9 18 5 32 -16 10 -16 19 -35 21 -43 1 -8 6 -23 12
-35 12 -23 20 -225 9 -218 -5 2 -8 -5 -8 -17 0 -32 -20 -66 -30 -50 -8 13 -30
5 -30 -11 0 -6 3 -8 8 -5 4 2 7 -18 6 -45 0 -35 -8 -59 -24 -81 -18 -25 -20
-32 -9 -39 12 -8 12 -11 -1 -18 -8 -5 -18 -7 -22 -5 -4 3 -8 1 -8 -5 0 -5 6
-12 13 -15 6 -3 1 -3 -12 0 -16 4 -21 3 -17 -5 4 -6 2 -11 -4 -11 -7 0 -23 -9
-37 -20 -14 -11 -39 -20 -55 -20 -16 0 -36 -7 -44 -15 -8 -8 -41 -22 -74 -31
-33 -9 -60 -21 -60 -26 0 -6 -11 -3 -25 6 -14 9 -31 16 -38 14 -6 -1 -26 2
-44 6 -35 8 -90 77 -85 107 3 16 -28 57 -45 60 -34 6 -85 41 -82 56 1 4 1 25
0 47 -1 31 -4 36 -14 27 -8 -6 -17 -8 -20 -4 -4 3 -7 1 -7 -6 0 -7 -4 -9 -10
-6 -5 3 -10 0 -10 -8 0 -8 -6 -20 -14 -26 -8 -7 -17 -25 -21 -39 -13 -61 -89
-116 -111 -80 -5 7 -2 9 8 5 16 -6 48 21 48 39 0 5 -4 3 -8 -4 -5 -7 -26 -13
-48 -15 -27 -1 -42 -8 -50 -22 -5 -11 -18 -19 -27 -19 -19 2 -34 -56 -21 -78
6 -11 5 -11 -8 0 -13 11 -18 11 -24 0 -5 -7 -9 -19 -9 -27 0 -17 -41 -25 -51
-9 -5 8 -2 9 9 5 13 -5 17 -1 17 14 0 15 -5 19 -16 15 -9 -3 -12 -2 -9 4 4 6
-7 15 -24 21 -17 6 -31 17 -31 25 0 8 -4 14 -8 14 -5 0 -9 6 -9 14 0 8 6 12
14 9 7 -3 13 -2 13 1 0 9 -48 53 -63 60 -9 3 -9 7 0 13 9 6 7 12 -8 21 -18 12
-20 11 -17 -7 2 -11 -9 -32 -26 -50 -20 -20 -25 -31 -15 -31 8 -1 3 -7 -11
-15 -14 -8 -19 -14 -12 -15 6 0 12 -5 12 -11 0 -7 -14 -10 -35 -7 -24 3 -35 0
-35 -9 0 -7 -4 -13 -10 -13 -5 0 -10 5 -10 12 0 6 -3 8 -6 5 -4 -4 1 -18 10
-31 19 -30 21 -49 4 -43 -7 2 -13 9 -13 15 0 5 -3 14 -7 18 -5 4 -8 17 -8 29
0 38 -13 37 -37 -2 -13 -21 -23 -34 -23 -30 0 5 8 22 18 39 16 28 16 30 0 42
-10 7 -15 16 -11 20 9 9 -16 26 -39 26 -9 0 -34 -17 -54 -37 -31 -32 -36 -34
-31 -15 5 20 2 22 -29 19 -22 -3 -38 1 -48 12 -18 20 -34 77 -18 67 6 -4 16 3
23 16 9 16 9 23 0 26 -6 2 -11 13 -11 25 -1 22 -1 22 -16 2 l-16 -20 3 20 c6
50 -26 96 -39 55 -3 -8 0 -10 9 -6 8 4 3 -1 -10 -12 -13 -11 -21 -24 -17 -31
4 -6 0 -14 -8 -17 -18 -7 -22 -34 -5 -34 5 0 7 -5 3 -11 -3 -6 -15 -9 -25 -6
-15 4 -19 0 -19 -19 0 -13 -9 -33 -20 -44 -12 -12 -15 -20 -7 -20 23 0 -17
-20 -41 -20 -13 0 -21 -4 -18 -9 3 -5 -2 -8 -11 -7 -10 1 -17 -8 -18 -23 -3
-43 -124 -127 -145 -102 -3 3 -21 7 -40 8 -19 1 -50 6 -68 12 -19 6 -30 6 -27
0 4 -5 -1 -9 -9 -9 -9 0 -13 6 -10 14 3 8 -4 16 -18 19 -13 4 -42 20 -66 38
-36 26 -41 34 -30 47 11 13 10 14 -8 8 -15 -4 -28 2 -50 24 -16 16 -35 30 -41
30 -7 0 -12 3 -11 8 1 4 -14 38 -32 76 -32 66 -34 75 -34 188 -1 65 3 118 8
118 4 0 6 9 3 20 -3 13 -1 18 6 13 6 -4 8 0 4 10 -3 10 -3 17 2 17 12 0 62 78
64 100 1 10 7 16 14 13 7 -3 13 -1 13 5 0 6 11 24 25 40 13 16 22 32 18 36 -3
3 0 6 8 6 8 0 26 13 41 29 15 15 41 31 57 34 16 4 35 13 43 20 16 18 54 3 82
-31 14 -18 21 -20 32 -11 11 9 14 8 14 -5 0 -11 9 -16 28 -17 43 -1 64 -7 72
-19 5 -8 10 -9 14 -2 3 6 2 13 -4 17 -5 3 -7 18 -4 32 5 18 3 24 -5 19 -6 -4
-11 -2 -11 4 0 6 -5 8 -10 5 -12 -7 -33 42 -24 56 9 15 61 39 69 31 5 -4 5 -2
2 4 -4 7 -1 17 6 23 11 8 13 4 9 -19 -2 -17 -2 -30 1 -30 14 0 37 13 37 22 0
5 -4 6 -10 3 -5 -3 -10 -2 -10 4 0 11 39 25 47 17 4 -3 1 -6 -5 -6 -16 0 -15
-30 1 -30 6 -1 1 -7 -13 -15 -23 -13 -23 -15 -2 -19 5 0 16 -9 26 -18 19 -20
46 -24 46 -8 0 6 8 10 17 10 9 0 13 3 10 7 -10 10 13 33 34 33 12 0 16 5 13
15 -4 10 0 15 11 15 10 0 13 -4 9 -12 -6 -10 -4 -10 7 -2 8 7 30 15 49 19 19
4 44 15 54 24 11 9 16 10 12 3 -5 -9 -1 -15 14 -19 13 -3 19 -11 16 -19 -3 -8
-2 -14 2 -14 10 0 8 171 -3 194 -6 14 -3 23 10 32 22 16 19 16 39 8z m-64
-111 c0 -9 -3 -13 -7 -10 -3 4 -13 1 -21 -6 -13 -11 -14 -9 -1 11 16 26 29 29
29 5z m-102 -43 c25 0 38 -18 23 -33 -12 -12 -46 14 -62 48 -9 18 -9 19 4 3 8
-10 24 -18 35 -18z m566 15 c3 -8 1 -15 -3 -15 -5 0 -11 7 -15 15 -3 8 -1 15
3 15 5 0 11 -7 15 -15z m-308 -50 c1 -14 -2 -25 -8 -25 -5 0 -6 5 -2 12 4 7 3
8 -4 4 -7 -4 -12 -14 -12 -22 0 -8 -6 -14 -14 -14 -9 0 -13 10 -12 25 0 16 7
25 18 25 9 0 20 5 23 10 9 14 10 13 11 -15z m34 11 c0 -3 -4 -8 -10 -11 -5 -3
-10 -1 -10 4 0 6 5 11 10 11 6 0 10 -2 10 -4z m-386 -37 c-8 -14 -34 -11 -34
4 0 8 3 17 7 20 9 9 34 -13 27 -24z m1216 6 c0 -12 -19 -12 -23 0 -4 9 -1 12
9 8 7 -3 14 -7 14 -8z m-1225 -35 c3 -5 1 -10 -4 -10 -6 0 -11 5 -11 10 0 6 2
10 4 10 3 0 8 -4 11 -10z m1100 0 c3 -5 1 -10 -4 -10 -6 0 -11 5 -11 10 0 6 2
10 4 10 3 0 8 -4 11 -10z m-1389 -42 c4 -6 3 -8 -4 -4 -6 3 -13 2 -17 -4 -3
-5 -11 -10 -18 -10 -6 0 -2 7 9 15 23 18 21 17 30 3z m-15 -41 c-10 -9 -11 -8
-5 6 3 10 9 15 12 12 3 -3 0 -11 -7 -18z m1674 13 c3 -5 1 -10 -4 -10 -6 0
-11 5 -11 10 0 6 2 10 4 10 3 0 8 -4 11 -10z m385 -130 c0 -5 -2 -10 -4 -10
-3 0 -8 5 -11 10 -3 6 -1 10 4 10 6 0 11 -4 11 -10z m-2570 -330 c0 -5 -5 -10
-11 -10 -5 0 -7 5 -4 10 3 6 8 10 11 10 2 0 4 -4 4 -10z m59 -63 c0 -9 -2 -8
-6 1 -2 6 -10 9 -15 6 -7 -4 -8 -2 -4 5 9 13 26 5 25 -12z m-9 -77 c0 -5 -5
-10 -11 -10 -5 0 -7 5 -4 10 3 6 8 10 11 10 2 0 4 -4 4 -10z m1325 -129 c3 -5
2 -12 -3 -15 -5 -3 -9 1 -9 9 0 17 3 19 12 6z m-365 -46 c0 -2 -9 -3 -19 -2
-11 0 -18 5 -15 9 4 6 34 0 34 -7z m387 -37 c-3 -8 -6 -5 -6 6 -1 11 2 17 5
13 3 -3 4 -12 1 -19z"/>
<path d="M860 1906 c0 -23 16 -27 17 -5 1 10 -2 19 -8 19 -5 0 -9 -6 -9 -14z"/>
<path d="M1367 1826 c-7 -17 15 -27 33 -16 10 6 8 11 -8 19 -15 8 -21 7 -25
-3z"/>
<path d="M1480 1816 c0 -9 40 -13 46 -5 3 5 -6 9 -20 9 -14 0 -26 -2 -26 -4z"/>
<path d="M1634 1808 c-11 -18 -12 -48 -2 -48 4 0 8 5 8 10 0 6 7 10 16 10 9 0
14 7 12 17 -4 21 -24 28 -34 11z"/>
<path d="M1107 1804 c-7 -8 45 -94 58 -94 11 0 33 61 27 78 -2 6 -14 9 -27 6
-13 -2 -27 0 -30 6 -7 11 -19 13 -28 4z"/>
<path d="M847 1793 c-10 -9 -9 -33 1 -33 4 0 8 9 8 20 0 23 0 22 -9 13z"/>
<path d="M1504 1765 c13 -10 15 -15 6 -15 -7 0 -11 -3 -7 -6 3 -3 10 -3 16 0
15 10 2 36 -18 36 -14 -1 -13 -3 3 -15z"/>
<path d="M2180 1761 c0 -11 26 -22 34 -14 3 3 3 10 0 14 -7 12 -34 11 -34 0z"/>
<path d="M1850 1739 c0 -19 2 -20 17 -8 11 10 14 10 9 2 -4 -7 -3 -13 3 -13 6
0 15 9 21 20 10 18 8 20 -20 20 -24 0 -30 -4 -30 -21z"/>
<path d="M1040 1741 c0 -6 5 -13 10 -16 6 -3 10 1 10 9 0 9 -4 16 -10 16 -5 0
-10 -4 -10 -9z"/>
<path d="M1071 1704 c0 -11 3 -14 6 -6 3 7 2 16 -1 19 -3 4 -6 -2 -5 -13z"/>
<path d="M461 1674 c0 -11 3 -14 6 -6 3 7 2 16 -1 19 -3 4 -6 -2 -5 -13z"/>
<path d="M435 1660 c-3 -5 -1 -10 4 -10 6 0 11 5 11 10 0 6 -2 10 -4 10 -3 0
-8 -4 -11 -10z"/>
<path d="M1512 1587 c1 -86 1 -88 -32 -122 -30 -31 -32 -37 -22 -60 15 -34 15
-35 -5 -35 -13 -1 -10 -5 10 -16 16 -9 35 -13 43 -10 10 4 14 -3 15 -22 l1
-27 10 28 c6 16 17 27 29 27 15 0 18 7 18 38 -1 47 -8 74 -19 67 -18 -11 -29
25 -31 101 -1 43 -5 88 -10 99 -5 12 -7 -15 -7 -68z"/>
<path d="M1915 1640 c-3 -5 -1 -10 4 -10 6 0 11 5 11 10 0 6 -2 10 -4 10 -3 0
-8 -4 -11 -10z"/>
<path d="M1842 1614 c2 -19 12 -30 38 -40 24 -10 30 -10 19 -1 -9 6 -17 15
-18 19 -5 24 -14 37 -27 42 -12 4 -15 0 -12 -20z"/>
<path d="M2590 1423 c0 -7 -7 -10 -15 -7 -11 4 -15 0 -15 -16 0 -16 4 -20 15
-16 13 5 20 -5 16 -26 -2 -12 17 -10 24 2 3 6 13 10 21 10 8 0 12 -4 9 -10 -3
-6 4 -9 19 -8 21 2 23 5 14 21 -7 13 -16 17 -32 13 -16 -4 -26 1 -39 22 -9 15
-17 22 -17 15z"/>
<path d="M1605 1381 c-6 -11 13 -26 22 -17 4 3 1 6 -6 6 -7 0 -9 5 -6 10 3 6
4 10 1 10 -3 0 -7 -4 -11 -9z"/>
<path d="M280 1370 c20 -13 33 -13 25 0 -3 6 -14 10 -23 10 -15 0 -15 -2 -2
-10z"/>
<path d="M1720 1370 c0 -6 7 -10 15 -10 8 0 15 2 15 4 0 2 -7 6 -15 10 -8 3
-15 1 -15 -4z"/>
<path d="M2030 1365 c-18 -21 -3 -32 16 -13 10 9 12 18 6 22 -5 3 -15 -1 -22
-9z"/>
<path d="M1501 1244 c0 -11 3 -14 6 -6 3 7 2 16 -1 19 -3 4 -6 -2 -5 -13z"/>
<path d="M2285 1240 c-3 -5 -1 -10 4 -10 6 0 11 5 11 10 0 6 -2 10 -4 10 -3 0
-8 -4 -11 -10z"/>
<path d="M1116 1225 c-9 -26 -7 -32 5 -12 6 10 9 21 6 23 -2 3 -7 -2 -11 -11z"/>
<path d="M2320 1209 c0 -13 41 -22 52 -11 6 6 -1 11 -21 14 -17 3 -31 1 -31
-3z"/>
<path d="M393 1172 c4 -29 19 -43 35 -33 9 5 5 14 -13 31 l-25 24 3 -22z"/>
</g>
</svg>
